<svg width="289" height="236" viewBox="0 0 289 236" fill="none" xmlns="http://www.w3.org/2000/svg">
<circle cx="165" cy="24" r="24" fill="black"/>
<circle cx="96" cy="90" r="24" fill="black"/>
<circle cx="265" cy="149" r="24" fill="black"/>
<circle cx="92" cy="212" r="24" fill="black"/>
<circle cx="197" cy="149" r="24" fill="black"/>
<circle cx="24" cy="212" r="24" fill="black"/>
<circle cx="58" cy="149" r="24" fill="black"/>
<path d="M256.5 90C256.5 103.255 245.755 114 232.5 114C219.245 114 208.5 103.255 208.5 90C208.5 76.7452 219.245 66 232.5 66C245.755 66 256.5 76.7452 256.5 90Z" fill="black"/>
<line x1="155.727" y1="32.8075" x2="110.727" y2="75.8075" stroke="black" stroke-width="5"/>
<line x1="226.907" y1="98.3579" x2="193.099" y2="150.617" stroke="black" stroke-width="5"/>
<line x1="53.9073" y1="161.358" x2="20.0991" y2="213.617" stroke="black" stroke-width="5"/>
<line x1="233.858" y1="98.3276" x2="275.496" y2="144.591" stroke="black" stroke-width="5"/>
<line x1="60.8582" y1="161.328" x2="102.496" y2="207.591" stroke="black" stroke-width="5"/>
<line x1="180.858" y1="35.3276" x2="222.496" y2="81.5911" stroke="black" stroke-width="5"/>
<line x1="91.8291" y1="100.396" x2="57.0739" y2="152.03" stroke="black" stroke-width="5"/>
</svg>
